<?xml version="1.0" encoding="UTF-8" standalone="no"?>
<svg xmlns:svg="http://www.w3.org/2000/svg" xmlns="http://www.w3.org/2000/svg" version="1.1" width="1000" height="1000" viewBox="0 0 1000 1000" id="Layer_1" xml:space="preserve"><title id="title0">snake.pyjs.org</title>
<path d="m 684,20 l 0,104 c 72,0 72,0 72,176 c 0,152 32,184 104,200 c -72,16 -104,48 -104,200 c 0,76 -60,136 -136,136 c -76,0 -136,-60 -136,-136 c 0,-160 176,-160 176,-400 c 0,-156 -124,-280 -280,-280 c 0,0 -140,-4 -224,80 c 0,0 -28,24 -28,64 c 0,24 12,40 12,40 c 0,0 -8,40 -112,40 l -8,16 c 72,0 112,-32 112,-32 c 0,0 -32,40 -32,112 l 16,-8 c 0,-104 40,-112 40,-112 c 0,0 16,12 40,12 c 40,0 64,-28 64,-28 c 42,-42 120,-40 120,-40 c 76,0 136,60 136,136 c 0,160 -176,160 -176,400 c 0,156 124,280 280,280 c 156,0 280,-124 280,-280 c 0,-136 0,-136 80,-160 l 0,-80 c -80,-24 -80,-24 -80,-160 c 0,-280 0,-280 -216,-280 M 260,60 c 14,0 24,10 24,24 c 0,14 -10,24 -24,24 c -14,0 -24,-10 -24,-24 c 0,-14 10,-24 24,-24 " id="snake" style="fill-opacity:1;fill-rule:nonzero"/>
</svg>
